# xmcd CD database file
#
# Track frame offsets:
#	150
#	19055
#	33826
#	51065
#	68310
#	89425
#	110500
#	129920
#	158062
#	173045
#	188425
#	207532
#	223823
#	252276
#	275433
#	302420
#	332969
#
# Disc length: 4440 seconds
#
# Revision: 1
# Processed by: cddbd v1.5.2PL0 Copyright (c) Steve Scherf et al.
# Submitted via: CDex 1.51
#
DISCID=e3115611
DTITLE=KORN - See You On The Other Side
DYEAR=2005
DGENRE=Rock
TTITLE0=Twisted Transistor
TTITLE1=Politics
TTITLE2=Hypocrites
TTITLE3=Souvenir
TTITLE4=10 or a 2-way
TTITLE5=Throw Me Away
TTITLE6=Love Song
TTITLE7=Open Up
TTITLE8=Coming Undone
TTITLE9=Getting Off
TTITLE10=Liar
TTITLE11=For No One
TTITLE12=Seen It All
TTITLE13=Tearjerker
TTITLE14=Too Late I'm Dead
TTITLE15=CDDB
TTITLE16=CDDB
EXTD=YEAR: 2005
EXTT0=
EXTT1=
EXTT2=
EXTT3=
EXTT4=
EXTT5=
EXTT6=
EXTT7=
EXTT8=
EXTT9=
EXTT10=
EXTT11=
EXTT12=
EXTT13=
EXTT14=
EXTT15=
EXTT16=
PLAYORDER=
